<?xml version="1.0" encoding="UTF-8" standalone="no"?>
<!DOCTYPE svg PUBLIC "-//W3C//DTD SVG 1.1//EN" "http://www.w3.org/Graphics/SVG/1.1/DTD/svg11.dtd">
<svg width="100%" height="100%" viewBox="0 0 512 512" version="1.1" xmlns="http://www.w3.org/2000/svg" xmlns:xlink="http://www.w3.org/1999/xlink" xml:space="preserve" xmlns:serif="http://www.serif.com/" style="fill-rule:evenodd;clip-rule:evenodd;stroke-linejoin:round;stroke-miterlimit:2;">
    <path d="M149.1,64.8L138.7,96L64,96C28.7,96 0,124.7 0,160L0,416C0,451.3 28.7,480 64,480L448,480C483.3,480 512,451.3 512,416L512,160C512,124.7 483.3,96 448,96L373.3,96L362.9,64.8C356.4,45.2 338.1,32 317.4,32L194.6,32C173.9,32 155.6,45.2 149.1,64.8ZM256,192C308.664,192 352,235.336 352,288C352,340.664 308.664,384 256,384C203.336,384 160,340.664 160,288C160,235.336 203.336,192 256,192Z" style="fill:white;fill-rule:nonzero;"/>
</svg>
